<svg width="57" height="56" viewBox="0 0 57 56" fill="none" xmlns="http://www.w3.org/2000/svg">
<circle cx="28.791" cy="28" r="28" fill="#274C5B"/>
<path d="M25.5679 39.0001C26.2429 39.0001 26.7901 38.4529 26.7901 37.7779C26.7901 37.1029 26.2429 36.5557 25.5679 36.5557C24.8929 36.5557 24.3457 37.1029 24.3457 37.7779C24.3457 38.4529 24.8929 39.0001 25.5679 39.0001Z" fill="white" stroke="white" stroke-width="1.5" stroke-linecap="round" stroke-linejoin="round"/>
<path d="M34.1246 39.0001C34.7996 39.0001 35.3468 38.4529 35.3468 37.7779C35.3468 37.1029 34.7996 36.5557 34.1246 36.5557C33.4496 36.5557 32.9023 37.1029 32.9023 37.7779C32.9023 38.4529 33.4496 39.0001 34.1246 39.0001Z" fill="white" stroke="white" stroke-width="1.5" stroke-linecap="round" stroke-linejoin="round"/>
<path d="M15.791 17H19.5729L22.4093 33.0731H37.5369" stroke="white" stroke-width="2" stroke-linecap="round" stroke-linejoin="round"/>
<path d="M21.9012 29.1837L37.1484 29.2907C37.2578 29.2908 37.3637 29.2529 37.4483 29.1837C37.5329 29.1144 37.5908 29.0179 37.6123 28.9107L39.3142 20.4014C39.3279 20.3328 39.3262 20.262 39.3093 20.1941C39.2923 20.1262 39.2605 20.063 39.2161 20.0089C39.1717 19.9548 39.1159 19.9112 39.0526 19.8813C38.9894 19.8514 38.9203 19.8359 38.8503 19.8359L20.3574 19.8359" stroke="white" stroke-width="2" stroke-linecap="round" stroke-linejoin="round"/>
</svg>
